<svg id="Layer_1" data-name="Layer 1" xmlns="http://www.w3.org/2000/svg" width="287.06" height="88.43" viewBox="0 0 287.06 88.43">
  <defs>
    <style>
      .cls-1 {
        fill: #df2f26;
      }

      .cls-2 {
        fill: #1569af;
      }

      .cls-3 {
        fill: #fff;
      }

      .cls-4 {
        fill: #fcfcfc;
      }
    </style>
  </defs>
  <path class="cls-1" d="M23.82,57.39V32.71H12.63V57.39H.15V.21H12.63V24.58H23.82V.21H36.2V57.39Z" transform="translate(-0.15)"/>
  <path class="cls-1" d="M61.53,57.28c-12.52,0-20.71-6.76-20.71-27.12S49.26,0,61.66,0C74.25,0,82.5,7.38,82.5,27.43,82.5,48.25,73.81,57.28,61.53,57.28ZM61.6,7.71c-5.33,0-8.4,7.09-8.4,19.83s3.07,22,8.4,22,8.33-6.86,8.33-19.75C69.93,17.09,66.92,7.71,61.6,7.71Z" transform="translate(-0.15)"/>
  <path class="cls-1" d="M87.11,57.07V.1H99.59v49l19-.79v8.73Z" transform="translate(-0.15)"/>
  <path class="cls-1" d="M136.37,57.28a43.47,43.47,0,0,1-13.06-1.67l.46-8.13A33,33,0,0,0,135,49.61c4.63,0,9.34-2,9.34-6.31,0-4.71-6.76-8.88-10.71-12.07-5.47-4.41-10.4-8.13-10.4-15.8,0-8.81,8.35-15.11,22.1-15.11a70.42,70.42,0,0,1,12.91,1.37l-.61,8.2a33.92,33.92,0,0,0-10.56-1.82c-3.26,0-6.61,2.12-6.61,5.54s5.24,7.29,9.65,10.25c7.21,4.94,11.47,9.49,11.47,17.24C161.59,49.07,153.69,57.28,136.37,57.28Z" transform="translate(-0.15)"/>
  <path class="cls-1" d="M191.37,8.06V57.44H178.75V8.06H166.2V.16H204v7.9Z" transform="translate(-0.15)"/>
  <path class="cls-1" d="M208.6,57.17V.2h32.34V7.89H221v15.6h11.67v7.38H221V49.63h20v7.54Z" transform="translate(-0.15)"/>
  <path class="cls-1" d="M278.21,57.24,258.05,24.06l.14,33.18H245.63V0H255l19.94,34.22L274.63,0h12.58V57.24Z" transform="translate(-0.15)"/>
  <g>
    <path class="cls-2" d="M213.38,60.45c1,.12,1.44,1.44,1.2,2.88s-1.2,2.4-2,2.28-1.45-1.56-1.21-2.88S212.54,60.33,213.38,60.45Zm-4,1.08c.72.12,1.08,1,1,2a1.52,1.52,0,0,1-1.32,1.68A1.62,1.62,0,0,1,208,63.33C208.21,62.25,208.69,61.53,209.41,61.53Zm-3.12,1.08c.6,0,1.08.72,1.08,1.44s-.48,1.56-1.08,1.56-1.08-.72-1.08-1.56A1.36,1.36,0,0,1,206.29,62.61Zm-2.16,1.56c.48-.12,1,.36,1.08,1.08a1.3,1.3,0,0,1-.6,1.44c-.48.12-1-.36-1.08-1.08A1.3,1.3,0,0,1,204.13,64.17Zm-1.08,1.68c.36,0,.72.48.72,1.08s-.24,1-.72,1-.72-.48-.72-1.08S202.69,65.85,203.05,65.85Zm7.32,1.08c1.09,0,3.25.24,3.25,2.76,0,3.61-4.33,3.61-4.33,7.69,0,3.24,3.37,3.6,3.25,7.32-.12,1.92-.72,3.73-3.85,3.73-2.16,0-3.24-2.05-3.24-4,0-5-3.36-6.6-3.12-11.52C202.33,67.77,208.21,66.93,210.37,66.93Z" transform="translate(-0.15)"/>
    <path class="cls-3" d="M213.11,60.45c.94.11,1.42,1.42,1.18,2.84s-1.18,2.36-2,2.24-1.42-1.54-1.18-2.84S212.28,60.33,213.11,60.45Zm-3.91,1.06c.71.12,1.07,1,1,2a1.5,1.5,0,0,1-1.3,1.66,1.6,1.6,0,0,1-1.07-1.89C208,62.22,208.49,61.51,209.2,61.51Zm-3.07,1.07c.59,0,1.06.71,1.06,1.41s-.47,1.54-1.06,1.54-1.07-.71-1.07-1.54A1.33,1.33,0,0,1,206.13,62.58ZM204,64.11c.47-.12.94.36,1.06,1.07a1.29,1.29,0,0,1-.59,1.42c-.47.12-.94-.36-1.06-1.07A1.27,1.27,0,0,1,204,64.11Zm-1.07,1.66c.36,0,.71.47.71,1.06s-.23,1-.71,1-.71-.47-.71-1.06S202.58,65.77,202.93,65.77Zm7.22,1.06c1.06,0,3.19.24,3.19,2.72,0,3.55-4.26,3.55-4.26,7.57,0,3.2,3.32,3.55,3.2,7.22-.12,1.89-.71,3.67-3.79,3.67-2.13,0-3.19-2-3.19-3.91,0-5-3.31-6.5-3.08-11.35C202.22,67.66,208,66.83,210.15,66.83Z" transform="translate(-0.15)"/>
    <path class="cls-2" d="M236.38,60.45c-1,.12-1.45,1.44-1.21,2.88s1.21,2.4,2.05,2.28,1.44-1.56,1.2-2.88S237.22,60.33,236.38,60.45Zm4,1.08c-.72.12-1.08,1-1,2a1.52,1.52,0,0,0,1.32,1.68,1.62,1.62,0,0,0,1.08-1.92C241.54,62.25,241.06,61.53,240.34,61.53Zm3.12,1.08c-.6,0-1.08.72-1.08,1.44s.48,1.56,1.08,1.56,1.08-.72,1.08-1.56A1.36,1.36,0,0,0,243.46,62.61Zm2.16,1.56c-.48-.12-1,.36-1.08,1.08a1.3,1.3,0,0,0,.6,1.44c.48.12,1-.36,1.08-1.08A1.3,1.3,0,0,0,245.62,64.17Zm1.08,1.68c-.36,0-.72.48-.72,1.08s.24,1,.72,1,.72-.48.72-1.08S247.06,65.85,246.7,65.85Zm-7.32,1.08c-1.08,0-3.24.24-3.24,2.76,0,3.61,4.32,3.61,4.32,7.69,0,3.24-3.36,3.6-3.24,7.32.12,1.92.72,3.73,3.84,3.73,2.16,0,3.24-2.05,3.24-4,0-5,3.36-6.6,3.12-11.52C247.42,67.77,241.54,66.93,239.38,66.93Z" transform="translate(-0.15)"/>
    <path class="cls-3" d="M236.25,60.45c-.94.11-1.42,1.42-1.18,2.84s1.18,2.36,2,2.24,1.42-1.54,1.18-2.84S237.08,60.33,236.25,60.45Zm3.91,1.06c-.71.12-1.07,1-.95,2a1.5,1.5,0,0,0,1.3,1.66,1.6,1.6,0,0,0,1.07-1.89C241.34,62.22,240.87,61.51,240.16,61.51Zm3.07,1.07c-.59,0-1.06.71-1.06,1.41s.47,1.54,1.06,1.54,1.07-.71,1.07-1.54A1.34,1.34,0,0,0,243.23,62.58Zm2.13,1.53c-.47-.12-1,.36-1.06,1.07a1.27,1.27,0,0,0,.59,1.42c.47.12.94-.36,1.06-1.07A1.27,1.27,0,0,0,245.36,64.11Zm1.07,1.66c-.36,0-.71.47-.71,1.06s.23,1,.71,1,.7-.47.7-1.06S246.78,65.77,246.43,65.77Zm-7.22,1.06c-1.06,0-3.19.24-3.19,2.72,0,3.55,4.25,3.55,4.25,7.57,0,3.2-3.31,3.55-3.19,7.22.12,1.89.71,3.67,3.79,3.67,2.12,0,3.19-2,3.19-3.91,0-5,3.31-6.5,3.07-11.35C247.13,67.66,241.34,66.83,239.21,66.83Z" transform="translate(-0.15)"/>
    <path class="cls-2" d="M6.35,69v5.4h5.76v2.22H6.35V83.3h-5V66.7h11.5V69Z" transform="translate(-0.15)"/>
    <path class="cls-2" d="M116.26,69.06V83.3h-5V69.06h-4.79V66.7H121v2.36Z" transform="translate(-0.15)"/>
    <path class="cls-2" d="M174.36,83.3h-5V66.7h5.33c3.88,0,7.42.77,7.42,3.77a4.21,4.21,0,0,1-3,3.65v.07c2,.54,3.9,1.72,3.9,3.94C183,81.53,179.44,83.3,174.36,83.3ZM174.29,69v4.08a5.9,5.9,0,0,0,.75-.05A2.07,2.07,0,0,0,177.15,71C177.15,69.63,176.13,69,174.29,69Zm0,6.39V81c2.07,0,3.61-.84,3.61-2.75S176.22,75.43,174.29,75.43Z" transform="translate(-0.15)"/>
    <path class="cls-2" d="M279.4,83.3l-2.65-8.25c1.68-.32,2.74-1,2.74-3.16,0-1.74-1.27-2.92-3.24-2.92V83.3H271.3V66.7h5.13c4.4,0,8.1.91,8.1,4.72a4.8,4.8,0,0,1-2.68,4.44l3,7.44Z" transform="translate(-0.15)"/>
    <path class="cls-2" d="M47.17,74.35c-.11-.28-.43-.3-.7-.3h-.95c-.3,0-.85,0-.86-.23v-.13a2.62,2.62,0,0,0,1.12-.26,1.76,1.76,0,0,0,.77-.78,1.8,1.8,0,0,0-.37-2.1,1.83,1.83,0,0,0-1-.47h-.11a1.43,1.43,0,0,0-.4-1.12,1.4,1.4,0,0,0-1.38-.35A2.43,2.43,0,0,0,43,68a2.1,2.1,0,0,0-1.2-.81,2.13,2.13,0,0,0-1.34.11,2.13,2.13,0,0,0-3.16,1.12,1.83,1.83,0,0,0-.1.7,1.29,1.29,0,0,0-.88.38,1.33,1.33,0,0,0-.39.9A1.6,1.6,0,0,0,34.71,72a1.65,1.65,0,0,0,1.79,1.61s0,4.38-.13,5.9a24.17,24.17,0,0,1-.44,3.45h0l-.16.75a.61.61,0,0,0,.59.71h8.45a.6.6,0,0,0,.58-.71l-.16-.77h0s0-.1,0-.2c-.06-1,1.5-1.67,2-2.63C47.64,79.27,47.6,75.54,47.17,74.35Zm-3.82-5a1.62,1.62,0,0,0,0-.22.85.85,0,0,1,.94.19.88.88,0,0,1,.23.81,1.68,1.68,0,0,0-.39.16,2,2,0,0,0-.38.32l-.1-.09a1.27,1.27,0,0,0-.65-.28A1.8,1.8,0,0,0,43.35,69.36ZM35.25,72a1.07,1.07,0,0,1,.78-1,1.07,1.07,0,0,0,.62.6,1.48,1.48,0,0,1-.29-.9,1.12,1.12,0,0,1,.34-.75,1.08,1.08,0,0,1,.58-.3,1.61,1.61,0,0,0,.22.48,1.5,1.5,0,0,0-.14.58A1.38,1.38,0,0,0,39.12,72,1.35,1.35,0,0,1,38,71.3a1.16,1.16,0,0,1,1.24-1.64,1.34,1.34,0,0,1,1,.89,1.31,1.31,0,0,0-.92-1.3,1.53,1.53,0,0,0-.9,0,1.59,1.59,0,0,0-.76.54l-.08.13a2.06,2.06,0,0,1,.2-1.29,1.86,1.86,0,0,1,2.63-.71,2.15,2.15,0,0,1,.93,1.36,1.81,1.81,0,0,0-.41-1.57,1.73,1.73,0,0,1,1.73.56,1.86,1.86,0,0,1,.26,2,1.35,1.35,0,0,0-.45,0,1.09,1.09,0,0,0-.79.8,1.4,1.4,0,0,1,.87-.39,1.11,1.11,0,0,1,.77.26,1.14,1.14,0,0,1,.41.71,1.4,1.4,0,0,1-.21.92,1.07,1.07,0,0,0,.62-.93,1.28,1.28,0,0,0-.25-.88,1.5,1.5,0,0,1,1.19-.17,1.35,1.35,0,0,1,1,1.06c.09.48-.21,1.33-1.56,1.33H42.81a1.5,1.5,0,0,0,0-.42,1.38,1.38,0,0,0-.64-.85,1.22,1.22,0,0,1,.44.93A1.36,1.36,0,0,1,42,73.78a1,1,0,0,1-1.11,0,2,2,0,0,0,.12-.34,1.8,1.8,0,0,0-.42-1.59,1.66,1.66,0,0,1-.06,1.8,1.54,1.54,0,0,1-1.84.64A1.42,1.42,0,0,1,37.74,73H36.53A1.17,1.17,0,0,1,35.25,72Zm7.31,8.28a.38.38,0,0,1,.35.4.37.37,0,0,1-.4.35.38.38,0,0,1,.05-.75ZM42,76.66a.55.55,0,1,1,.51.59A.54.54,0,0,1,42,76.66Zm.84,2.18a.49.49,0,1,1,.52-.46A.48.48,0,0,1,42.88,78.84Zm-1.24-3.51a.35.35,0,0,1,0,.18.55.55,0,0,1-1.09-.06c-1.29.26-2.32.75-3.31.27,0,0,0-1.69,0-2.2a1.9,1.9,0,0,0,1.35,1.36,2,2,0,0,0,2.11-.58,1.57,1.57,0,0,0,2.05-.65h1v2.07A5.17,5.17,0,0,0,41.64,75.33Zm-.23,3.74a.44.44,0,1,1-.47.4A.44.44,0,0,1,41.41,79.07Zm-.49-.62a.62.62,0,1,1,.66-.57A.62.62,0,0,1,40.92,78.45ZM41.48,81a.42.42,0,1,1-.45.39A.43.43,0,0,1,41.48,81Zm-4.27,1.23h0a21.88,21.88,0,0,0,.43-3.09c.1-1.55.14-2.59.14-2.59h.55s0,1-.14,2.59S38,82.24,38,82.24l-1,.66Zm-.06,1.34c.94-.18,1.79-1.33,3.64-1.33h0A3.64,3.64,0,0,1,42,82.4v0a.34.34,0,0,1,.36-.31.34.34,0,0,1,.31.36.36.36,0,0,1-.11.22,7.43,7.43,0,0,0,1.91.92Zm6.63-1.41A13.69,13.69,0,0,1,43.91,79a19.08,19.08,0,0,0,.37,3.08,4.73,4.73,0,0,0,.23.7ZM46.7,79a1.11,1.11,0,0,1-1.11,1.16c-.69,0-.8-.8-.8-.8v0c0-.65-.06-1.63-.08-2.61.16,0,.51-.14.51-.77s-.09-1.16.89-1.16S46.7,78.39,46.7,79Z" transform="translate(-0.15)"/>
    <path class="cls-4" d="M46.7,73.88c-.1-.28-.43-.3-.69-.3h-1c-.29,0-.85,0-.86-.23v-.13A2.59,2.59,0,0,0,45.31,73a1.76,1.76,0,0,0,.77-.78,1.78,1.78,0,0,0,.16-1.11,1.85,1.85,0,0,0-.53-1,1.76,1.76,0,0,0-1-.47H44.6a1.4,1.4,0,0,0-.4-1.12,1.38,1.38,0,0,0-1.38-.35,2,2,0,0,0-.29-.61,2.09,2.09,0,0,0-2.53-.7,2.16,2.16,0,0,0-1.7-.26,2.13,2.13,0,0,0-1.47,1.37,1.89,1.89,0,0,0-.1.7,1.34,1.34,0,0,0-.88.39,1.3,1.3,0,0,0-.39.89,1.62,1.62,0,0,0-1.22,1.56A1.65,1.65,0,0,0,36,73.09s0,4.38-.14,5.9a24.17,24.17,0,0,1-.44,3.45h0l-.16.74a.61.61,0,0,0,.59.72h8.45a.61.61,0,0,0,.59-.72l-.17-.76h0s0-.1,0-.2c-.06-1,1.5-1.67,2-2.63C47.17,78.79,47.13,75.07,46.7,73.88Zm-3.82-5a1.77,1.77,0,0,0,0-.23.87.87,0,0,1,1.17,1,1.68,1.68,0,0,0-.39.16,1.64,1.64,0,0,0-.37.32l-.1-.09a1.35,1.35,0,0,0-.65-.28A1.89,1.89,0,0,0,42.88,68.89Zm-8.1,2.59a1.05,1.05,0,0,1,.78-1,1.06,1.06,0,0,0,.63.6,1.44,1.44,0,0,1-.3-.91,1.13,1.13,0,0,1,.92-1,1.61,1.61,0,0,0,.22.48A1.45,1.45,0,0,0,37.15,71a1.52,1.52,0,0,0,1.5.53,1.36,1.36,0,0,1-1.14-.74,1.16,1.16,0,0,1,1.23-1.65,1.38,1.38,0,0,1,1,.9,1.31,1.31,0,0,0-.93-1.3,1.48,1.48,0,0,0-1.65.52,1.1,1.1,0,0,0-.09.14,2.18,2.18,0,0,1,.2-1.3,1.86,1.86,0,0,1,2.63-.7,2.2,2.2,0,0,1,.94,1.36,1.85,1.85,0,0,0-.42-1.57,1.73,1.73,0,0,1,1.73.56,1.86,1.86,0,0,1,.26,2,1.35,1.35,0,0,0-.45,0,1.09,1.09,0,0,0-.79.79,1.41,1.41,0,0,1,.87-.38,1.14,1.14,0,0,1,.78.25,1.18,1.18,0,0,1,.4.72,1.4,1.4,0,0,1-.21.92,1.09,1.09,0,0,0,.63-.93,1.39,1.39,0,0,0-.26-.89,1.56,1.56,0,0,1,1.2-.17,1.36,1.36,0,0,1,1,1.06c.09.49-.21,1.34-1.56,1.34H42.34a1.2,1.2,0,0,0,0-.42,1.38,1.38,0,0,0-.64-.85,1.22,1.22,0,0,1,.44.93,1.39,1.39,0,0,1-.6,1.13,1.07,1.07,0,0,1-1.12,0A2,2,0,0,0,40.5,73a1.79,1.79,0,0,0-.41-1.59A1.68,1.68,0,0,1,40,73.2a1.53,1.53,0,0,1-1.84.64,1.43,1.43,0,0,1-.91-1.32H36.06A1.17,1.17,0,0,1,34.78,71.48Zm7.31,8.28a.38.38,0,1,1-.05.75.37.37,0,0,1-.35-.4A.38.38,0,0,1,42.09,79.76Zm-.52-3.57a.55.55,0,0,1,.59-.52.56.56,0,1,1-.59.52Zm.84,2.18a.49.49,0,0,1-.46-.53.5.5,0,1,1,.46.53Zm-1.24-3.52a.4.4,0,0,1,0,.19.53.53,0,0,1-.58.5A.54.54,0,0,1,40.1,75c-1.29.26-2.32.75-3.31.27,0,0,0-1.69,0-2.2a1.91,1.91,0,0,0,1.35,1.36,2,2,0,0,0,2.11-.58,1.58,1.58,0,0,0,2.06-.65h1v2.07A5.33,5.33,0,0,0,41.17,74.85Zm-.23,3.75a.42.42,0,0,1,.4.46.43.43,0,0,1-.46.41.44.44,0,0,1-.41-.47A.44.44,0,0,1,40.94,78.6ZM40.45,78a.62.62,0,1,1,.09-1.23A.62.62,0,0,1,40.45,78ZM41,80.51a.42.42,0,0,1,.39.45.43.43,0,0,1-.45.39.42.42,0,0,1-.38-.45A.41.41,0,0,1,41,80.51Zm-4.27,1.22h0a19.89,19.89,0,0,0,.43-3.09c.1-1.54.14-2.58.14-2.58h.55s0,1-.14,2.58-.15,3.13-.15,3.13l-1,.65Zm-.06,1.35c.94-.18,1.79-1.33,3.64-1.33h0a3.75,3.75,0,0,1,1.18.18s0,0,0,0a.34.34,0,0,1,.67,0,.33.33,0,0,1-.11.21,7.07,7.07,0,0,0,1.92.93Zm6.63-1.41a13.69,13.69,0,0,1,.13-3.13,20,20,0,0,0,.37,3.07,4.61,4.61,0,0,0,.23.71Zm2.92-3.14a1.1,1.1,0,0,1-1.1,1.16c-.7,0-.81-.8-.81-.8v0c0-.65-.06-1.63-.08-2.61.16,0,.51-.14.51-.77s-.09-1.16.89-1.16S46.23,77.92,46.23,78.53Z" transform="translate(-0.15)"/>
    <path class="cls-3" d="M6,68.5v5.4h5.76v2.22H6v6.67H1V66.19H12.5V68.5Z" transform="translate(-0.15)"/>
    <path class="cls-2" d="M78.17,74.94c-.1-.28-.43-.31-.69-.31h-1c-.29,0-.84,0-.86-.22v-.13A2.59,2.59,0,0,0,76.78,74a1.74,1.74,0,0,0,.93-1.9,1.7,1.7,0,0,0-.53-1,1.76,1.76,0,0,0-1-.47h-.11a1.38,1.38,0,0,0-.4-1.12,1.39,1.39,0,0,0-1.38-.34,1.91,1.91,0,0,0-.29-.61,2.14,2.14,0,0,0-1.19-.82,2.2,2.2,0,0,0-1.34.12A2.14,2.14,0,0,0,68.3,69a2.42,2.42,0,0,0-.1.7,1.41,1.41,0,0,0-.88.38,1.35,1.35,0,0,0-.39.9,1.62,1.62,0,0,0-1.22,1.56,1.65,1.65,0,0,0,1.8,1.61s-.05,4.38-.14,5.9a24.17,24.17,0,0,1-.44,3.45h0l-.17.74a.61.61,0,0,0,.59.71h8.45a.61.61,0,0,0,.59-.71l-.17-.76h0a1.72,1.72,0,0,0,0-.21c-.06-1,1.5-1.66,2-2.63C78.64,79.85,78.6,76.13,78.17,74.94Zm-3.81-5c0-.08,0-.15,0-.23a.87.87,0,0,1,.93.19.86.86,0,0,1,.23.81,1.8,1.8,0,0,0-.38.16,1.35,1.35,0,0,0-.38.33l-.1-.09a1.36,1.36,0,0,0-.65-.29A1.93,1.93,0,0,0,74.36,70Zm-8.11,2.59a1.07,1.07,0,0,1,.78-1,1,1,0,0,0,.63.6,1.34,1.34,0,0,1-.29-.9,1.11,1.11,0,0,1,.33-.74,1.13,1.13,0,0,1,.58-.31,1.67,1.67,0,0,0,.22.49,1.45,1.45,0,0,0-.14.58,1.4,1.4,0,0,0,.26.86,1.53,1.53,0,0,0,1.5.54A1.35,1.35,0,0,1,69,71.88a1.15,1.15,0,0,1,.12-1.2,1.17,1.17,0,0,1,1.12-.44,1.35,1.35,0,0,1,1,.89,1.31,1.31,0,0,0-.93-1.29,1.39,1.39,0,0,0-.9,0,1.48,1.48,0,0,0-.75.53l-.09.14a2.11,2.11,0,0,1,.21-1.3A1.86,1.86,0,0,1,70,68.27a1.92,1.92,0,0,1,1.47.23,2.19,2.19,0,0,1,.93,1.36,1.81,1.81,0,0,0-.42-1.57,1.74,1.74,0,0,1,1.74.55,1.88,1.88,0,0,1,.25,2,1.16,1.16,0,0,0-.45.05,1.12,1.12,0,0,0-.79.79,1.36,1.36,0,0,1,.87-.38,1.12,1.12,0,0,1,1.18,1,1.4,1.4,0,0,1-.21.92,1.1,1.1,0,0,0,.63-.94,1.3,1.3,0,0,0-.26-.88,1.56,1.56,0,0,1,1.2-.17,1.35,1.35,0,0,1,1,1.06c.09.49-.21,1.34-1.56,1.34H73.81a1.18,1.18,0,0,0,0-.42,1.38,1.38,0,0,0-.64-.85,1.21,1.21,0,0,1,.45.93A1.43,1.43,0,0,1,73,74.37a1.07,1.07,0,0,1-1.12,0,2,2,0,0,0,.12-.34,1.78,1.78,0,0,0-.41-1.59,1.68,1.68,0,0,1-.07,1.8,1.54,1.54,0,0,1-1.84.64,1.41,1.41,0,0,1-.9-1.32H67.53A1.18,1.18,0,0,1,66.25,72.54Zm7.32,8.28a.36.36,0,0,1,.34.4.37.37,0,0,1-.4.35.39.39,0,0,1-.35-.4A.38.38,0,0,1,73.57,80.82ZM73,77.24a.56.56,0,1,1,.52.6A.56.56,0,0,1,73,77.24Zm.84,2.19a.5.5,0,1,1,.53-.46A.5.5,0,0,1,73.88,79.43Zm-1.23-3.52a1.1,1.1,0,0,1,0,.18.56.56,0,0,1-.59.51.56.56,0,0,1-.51-.56c-1.29.25-2.32.75-3.31.27,0,0,0-1.69,0-2.21a1.94,1.94,0,0,0,1.35,1.37,2,2,0,0,0,2.11-.58,1.59,1.59,0,0,0,2.06-.65h1v2.07A5.15,5.15,0,0,0,72.65,75.91Zm-.24,3.75a.42.42,0,0,1,.4.46.44.44,0,0,1-.46.41.45.45,0,0,1-.41-.47A.44.44,0,0,1,72.41,79.66ZM71.92,79a.62.62,0,1,1,.66-.57A.62.62,0,0,1,71.92,79Zm.56,2.53a.41.41,0,0,1,.39.45.4.4,0,0,1-.44.38.42.42,0,1,1,0-.83Zm-4.27,1.22h0a20.66,20.66,0,0,0,.44-3.09c.1-1.54.13-2.58.13-2.58h.55s0,1-.13,2.58-.16,3.13-.16,3.13l-1,.65Zm0,1.35c.93-.19,1.78-1.33,3.64-1.33h0A4,4,0,0,1,73,83s0,0,0,0a.34.34,0,0,1,.67,0,.38.38,0,0,1-.1.21,7.32,7.32,0,0,0,1.91.93Zm6.62-1.42a13.6,13.6,0,0,1,.13-3.12,21.86,21.86,0,0,0,.37,3.07,4.51,4.51,0,0,0,.24.71Zm2.92-3.13a1.1,1.1,0,0,1-1.1,1.16c-.69,0-.8-.8-.8-.8v0c0-.65-.07-1.63-.09-2.62.16,0,.52-.13.52-.77s-.1-1.15.88-1.15S77.7,79,77.7,79.59Z" transform="translate(-0.15)"/>
    <path class="cls-3" d="M77.7,74.47c-.1-.28-.42-.31-.69-.31h-1c-.3,0-.85,0-.86-.22a.72.72,0,0,1,0-.13,2.56,2.56,0,0,0,1.12-.26,1.75,1.75,0,0,0,.78-.79,1.78,1.78,0,0,0-.38-2.1,1.72,1.72,0,0,0-1-.46H75.6a1.38,1.38,0,0,0-.4-1.12,1.39,1.39,0,0,0-1.38-.35,2,2,0,0,0-.29-.6,2.09,2.09,0,0,0-1.19-.82,2.13,2.13,0,0,0-1.34.11,2.12,2.12,0,0,0-3.16,1.12,1.89,1.89,0,0,0-.1.7,1.33,1.33,0,0,0-.88.38,1.36,1.36,0,0,0-.4.9,1.61,1.61,0,0,0-1.21,1.56A1.65,1.65,0,0,0,67,73.68s-.05,4.38-.14,5.89A25.18,25.18,0,0,1,66.47,83h0l-.16.74a.61.61,0,0,0,.58.71h8.45a.61.61,0,0,0,.59-.71L75.76,83h0s0-.1,0-.2c-.06-1,1.5-1.66,2-2.63C78.18,79.38,78.13,75.66,77.7,74.47Zm-3.81-5a1.62,1.62,0,0,0,0-.22.87.87,0,0,1,.93.19.86.86,0,0,1,.23.81,1.8,1.8,0,0,0-.38.16,1.51,1.51,0,0,0-.38.33.28.28,0,0,0-.1-.09,1.21,1.21,0,0,0-.65-.29A1.93,1.93,0,0,0,73.89,69.47Zm-8.11,2.6a1.07,1.07,0,0,1,.78-1,1.06,1.06,0,0,0,.63.6,1.34,1.34,0,0,1-.29-.9,1.15,1.15,0,0,1,.33-.75,1.24,1.24,0,0,1,.58-.3,2,2,0,0,0,.22.49,1.5,1.5,0,0,0,.12,1.44,1.53,1.53,0,0,0,1.5.54,1.36,1.36,0,0,1-1.14-.75,1.16,1.16,0,0,1,1.24-1.64,1.35,1.35,0,0,1,1,.89,1.31,1.31,0,0,0-.93-1.3,1.46,1.46,0,0,0-.9,0,1.48,1.48,0,0,0-.75.53l-.09.13a2.08,2.08,0,0,1,.21-1.29A1.84,1.84,0,0,1,71,68a2.16,2.16,0,0,1,.93,1.36,1.84,1.84,0,0,0-.41-1.57,1.71,1.71,0,0,1,1.73.55,1.88,1.88,0,0,1,.25,2,1.29,1.29,0,0,0-.44,0,1.1,1.1,0,0,0-.79.8,1.4,1.4,0,0,1,.86-.39,1.17,1.17,0,0,1,.78.26,1.13,1.13,0,0,1,.4.72,1.35,1.35,0,0,1-.21.92,1.1,1.1,0,0,0,.63-.94,1.3,1.3,0,0,0-.26-.88,1.52,1.52,0,0,1,1.2-.17,1.36,1.36,0,0,1,1,1.06c.08.49-.21,1.34-1.57,1.34H73.35a1.87,1.87,0,0,0,0-.42,1.38,1.38,0,0,0-.65-.85,1.21,1.21,0,0,1,.45.93,1.39,1.39,0,0,1-.61,1.12,1,1,0,0,1-1.11,0,1.83,1.83,0,0,0,.11-.33A1.78,1.78,0,0,0,71.09,72a1.68,1.68,0,0,1-.06,1.8,1.54,1.54,0,0,1-1.85.63,1.39,1.39,0,0,1-.9-1.31H67.06A1.18,1.18,0,0,1,65.78,72.07Zm7.32,8.27a.38.38,0,0,1,0,.76.38.38,0,0,1,0-.76Zm-.53-3.57a.56.56,0,1,1,.52.6A.57.57,0,0,1,72.57,76.77ZM73.41,79a.51.51,0,0,1-.46-.53.5.5,0,0,1,.53-.46.49.49,0,0,1,.46.53A.5.5,0,0,1,73.41,79Zm-1.23-3.52a1.1,1.1,0,0,1,0,.18.56.56,0,0,1-.59.51.54.54,0,0,1-.5-.56c-1.3.25-2.33.74-3.32.26,0,0,0-1.68,0-2.2A1.91,1.91,0,0,0,69.15,75a2,2,0,0,0,2.12-.58,1.57,1.57,0,0,0,2-.64h1v2.06A5.36,5.36,0,0,0,72.18,75.44Zm-.24,3.74a.44.44,0,0,1-.06.88.44.44,0,0,1,.06-.88Zm-.49-.61a.62.62,0,0,1,.09-1.24.62.62,0,0,1,.57.66A.62.62,0,0,1,71.45,78.57ZM72,81.1a.4.4,0,0,1,.38.44.41.41,0,0,1-.44.39.42.42,0,0,1-.39-.45A.42.42,0,0,1,72,81.1Zm-4.27,1.22h0a20.66,20.66,0,0,0,.44-3.09c.1-1.55.13-2.58.13-2.58h.56s0,1-.14,2.58-.16,3.13-.16,3.13l-1,.65Zm-.06,1.34c.93-.18,1.78-1.32,3.64-1.33h0a3.64,3.64,0,0,1,1.17.18s0,0,0,0a.33.33,0,0,1,.66,0,.3.3,0,0,1-.1.22,7,7,0,0,0,1.91.92Zm6.63-1.41a13.23,13.23,0,0,1,.12-3.12,21.86,21.86,0,0,0,.37,3.07,5.58,5.58,0,0,0,.24.7Zm2.92-3.14a1.11,1.11,0,0,1-1.11,1.17c-.69,0-.8-.81-.8-.81v0c0-.65-.07-1.64-.09-2.62.16,0,.52-.14.52-.77s-.1-1.15.88-1.15S77.24,78.5,77.24,79.11Z" transform="translate(-0.15)"/>
    <path class="cls-3" d="M115.75,68.55V82.79h-5V68.55H106V66.19h14.56v2.36Z" transform="translate(-0.15)"/>
    <path class="cls-3" d="M173.89,82.79h-5V66.19h5.33c3.88,0,7.41.77,7.41,3.76a4.21,4.21,0,0,1-3,3.66v.06c2,.55,3.91,1.73,3.91,4C182.53,81,179,82.79,173.89,82.79Zm-.07-14.26v4.08a5.87,5.87,0,0,0,.74,0,2.07,2.07,0,0,0,2.11-2.11C176.67,69.11,175.65,68.53,173.82,68.53Zm0,6.39v5.56c2.06,0,3.6-.84,3.6-2.75S175.74,74.92,173.82,74.92Z" transform="translate(-0.15)"/>
    <path class="cls-3" d="M278.66,82.79,276,74.54c1.68-.32,2.75-1.05,2.75-3.16,0-1.74-1.27-2.92-3.25-2.92V82.79h-4.94V66.19h5.12c4.41,0,8.1.91,8.1,4.72a4.8,4.8,0,0,1-2.67,4.44l3,7.44Z" transform="translate(-0.15)"/>
  </g>
</svg>
