<svg xmlns="http://www.w3.org/2000/svg" width="287.06" height="88.43" viewBox="0 0 287.06 88.43">
  <defs>
    <style>
      .cls-1 {
        fill: #df2f26;

        <!-- ##1569af -->
      }

      .cls-2 {
        fill: #1569af;
      }
    </style>
  </defs>
  <g id="Layer_2" data-name="Layer 2">
    <g id="Layer_1-2" data-name="Layer 1">
      <path class="cls-1" d="M23.67,57.39V32.71H12.48V57.39H0V.21H12.48V24.58H23.67V.21H36.05V57.39Z"/>
      <path class="cls-1" d="M61.38,57.28c-12.52,0-20.71-6.76-20.71-27.12S49.11,0,61.51,0C74.1,0,82.35,7.38,82.35,27.43,82.35,48.25,73.66,57.28,61.38,57.28Zm.07-49.57c-5.33,0-8.4,7.09-8.4,19.83s3.07,22,8.4,22,8.33-6.86,8.33-19.75C69.78,17.09,66.77,7.71,61.45,7.71Z"/>
      <path class="cls-1" d="M87,57.07V.1H99.45v49l19-.79v8.73Z"/>
      <path class="cls-1" d="M136.23,57.28a43.49,43.49,0,0,1-13.07-1.67l.46-8.13a33,33,0,0,0,11.24,2.13c4.63,0,9.34-2,9.34-6.31,0-4.71-6.76-8.88-10.71-12.07-5.47-4.41-10.4-8.13-10.4-15.8,0-8.81,8.35-15.11,22.1-15.11A70.33,70.33,0,0,1,158.1,1.69l-.61,8.2a33.92,33.92,0,0,0-10.56-1.82c-3.26,0-6.6,2.12-6.6,5.54s5.24,7.29,9.64,10.25c7.22,4.94,11.47,9.49,11.47,17.24C161.44,49.07,153.54,57.28,136.23,57.28Z"/>
      <path class="cls-1" d="M191.22,8.06V57.44H178.61V8.06H166.06V.16h37.77v7.9Z"/>
      <path class="cls-1" d="M208.45,57.17V.2h32.34V7.89h-20v15.6h11.67v7.38H220.82V49.63h20.05v7.54Z"/>
      <path class="cls-1" d="M278.06,57.24,257.9,24.06,258,57.24H245.48V0h9.35l19.94,34.22L274.48,0h12.58V57.24Z"/>
      <g>
        <path class="cls-2" d="M213.23,60.45c1,.12,1.44,1.44,1.2,2.88s-1.2,2.4-2,2.28-1.44-1.56-1.2-2.88S212.39,60.33,213.23,60.45Zm-4,1.08c.72.12,1.08,1,1,2a1.52,1.52,0,0,1-1.32,1.68,1.61,1.61,0,0,1-1.09-1.92C208.06,62.25,208.54,61.53,209.27,61.53Zm-3.13,1.08c.6,0,1.08.72,1.08,1.44s-.48,1.56-1.08,1.56-1.08-.72-1.08-1.56A1.36,1.36,0,0,1,206.14,62.61ZM204,64.17c.48-.12,1,.36,1.08,1.08a1.3,1.3,0,0,1-.6,1.44c-.48.12-1-.36-1.08-1.08A1.3,1.3,0,0,1,204,64.17Zm-1.08,1.68c.36,0,.72.48.72,1.08s-.24,1-.72,1-.72-.48-.72-1.08S202.54,65.85,202.9,65.85Zm7.33,1.08c1.08,0,3.24.24,3.24,2.76,0,3.61-4.32,3.61-4.32,7.69,0,3.24,3.36,3.6,3.24,7.32-.12,1.92-.72,3.73-3.85,3.73-2.16,0-3.24-2.05-3.24-4,0-5-3.36-6.6-3.12-11.52C202.18,67.77,208.06,66.93,210.23,66.93Z"/>
        <path d="M213,60.45c.94.11,1.42,1.42,1.18,2.84s-1.18,2.36-2,2.24S210.71,64,211,62.69,212.13,60.33,213,60.45Zm-3.91,1.06c.71.12,1.07,1,.95,2a1.5,1.5,0,0,1-1.3,1.66,1.59,1.59,0,0,1-1.06-1.89C207.87,62.22,208.35,61.51,209.05,61.51ZM206,62.58c.59,0,1.06.71,1.06,1.41s-.47,1.54-1.06,1.54-1.07-.71-1.07-1.54A1.34,1.34,0,0,1,206,62.58Zm-2.13,1.53c.47-.12,1,.36,1.06,1.07a1.27,1.27,0,0,1-.59,1.42c-.47.12-.94-.36-1.06-1.07A1.29,1.29,0,0,1,203.85,64.11Zm-1.06,1.66c.35,0,.71.47.71,1.06s-.24,1-.71,1-.71-.47-.71-1.06S202.43,65.77,202.79,65.77ZM210,66.83c1.07,0,3.19.24,3.19,2.72,0,3.55-4.25,3.55-4.25,7.57,0,3.2,3.31,3.55,3.19,7.22-.12,1.89-.71,3.67-3.78,3.67-2.13,0-3.2-2-3.2-3.91,0-5-3.31-6.5-3.07-11.35C202.08,67.66,207.87,66.83,210,66.83Z"/>
        <path class="cls-2" d="M236.23,60.45c-1,.12-1.44,1.44-1.2,2.88s1.2,2.4,2,2.28,1.44-1.56,1.2-2.88S237.07,60.33,236.23,60.45Zm4,1.08c-.72.12-1.08,1-1,2a1.52,1.52,0,0,0,1.32,1.68,1.62,1.62,0,0,0,1.08-1.92C241.39,62.25,240.91,61.53,240.19,61.53Zm3.12,1.08c-.6,0-1.08.72-1.08,1.44s.48,1.56,1.08,1.56,1.08-.72,1.08-1.56A1.36,1.36,0,0,0,243.31,62.61Zm2.16,1.56c-.48-.12-1,.36-1.08,1.08a1.3,1.3,0,0,0,.6,1.44c.48.12,1-.36,1.08-1.08A1.3,1.3,0,0,0,245.47,64.17Zm1.08,1.68c-.36,0-.72.48-.72,1.08s.24,1,.72,1,.73-.48.73-1.08S246.91,65.85,246.55,65.85Zm-7.32,1.08c-1.08,0-3.24.24-3.24,2.76,0,3.61,4.32,3.61,4.32,7.69,0,3.24-3.36,3.6-3.24,7.32.12,1.92.72,3.73,3.84,3.73,2.16,0,3.24-2.05,3.24-4,0-5,3.37-6.6,3.13-11.52C247.28,67.77,241.39,66.93,239.23,66.93Z"/>
        <path d="M236.1,60.45c-.94.11-1.42,1.42-1.18,2.84s1.18,2.36,2,2.24,1.42-1.54,1.19-2.84S236.93,60.33,236.1,60.45ZM240,61.51c-.71.12-1.07,1-.95,2a1.5,1.5,0,0,0,1.3,1.66,1.6,1.6,0,0,0,1.07-1.89C241.19,62.22,240.72,61.51,240,61.51Zm3.07,1.07c-.59,0-1.06.71-1.06,1.41s.47,1.54,1.06,1.54,1.07-.71,1.07-1.54A1.33,1.33,0,0,0,243.08,62.58Zm2.13,1.53c-.47-.12-.94.36-1.06,1.07a1.29,1.29,0,0,0,.59,1.42c.47.12.95-.36,1.06-1.07A1.27,1.27,0,0,0,245.21,64.11Zm1.07,1.66c-.36,0-.71.47-.71,1.06s.23,1,.71,1,.71-.47.71-1.06S246.63,65.77,246.28,65.77Zm-7.22,1.06c-1.06,0-3.19.24-3.19,2.72,0,3.55,4.26,3.55,4.26,7.57,0,3.2-3.32,3.55-3.2,7.22.12,1.89.71,3.67,3.79,3.67,2.13,0,3.19-2,3.19-3.91,0-5,3.31-6.5,3.08-11.35C247,67.66,241.19,66.83,239.06,66.83Z"/>
        <path class="cls-2" d="M116.11,69.06V83.3h-5V69.06h-4.78V66.7h14.56v2.36Z"/>
        <path class="cls-2" d="M174.21,83.3h-5V66.7h5.32c3.88,0,7.42.77,7.42,3.77a4.21,4.21,0,0,1-3,3.65v.07c2,.54,3.9,1.72,3.9,3.94C182.85,81.53,179.29,83.3,174.21,83.3ZM174.14,69v4.08a5.9,5.9,0,0,0,.75-.05A2.07,2.07,0,0,0,177,71C177,69.63,176,69,174.14,69Zm0,6.39V81c2.07,0,3.61-.84,3.61-2.75S176.07,75.43,174.14,75.43Z"/>
        <path class="cls-2" d="M279.25,83.3l-2.65-8.25c1.68-.32,2.74-1,2.74-3.16,0-1.74-1.27-2.92-3.24-2.92V83.3h-4.94V66.7h5.12c4.4,0,8.1.91,8.1,4.72a4.8,4.8,0,0,1-2.68,4.44l3,7.44Z"/>
        <path class="cls-2" d="M47,74.35c-.1-.28-.43-.3-.69-.3h-1c-.29,0-.85,0-.86-.23v-.13a2.59,2.59,0,0,0,1.12-.26,1.76,1.76,0,0,0,.77-.78,1.78,1.78,0,0,0,.16-1.11,1.85,1.85,0,0,0-.53-1,1.83,1.83,0,0,0-1-.47h-.11a1.39,1.39,0,0,0-1.78-1.47,2.13,2.13,0,0,0-.29-.61,2.09,2.09,0,0,0-2.53-.7,2.16,2.16,0,0,0-1.7-.26,2.12,2.12,0,0,0-1.47,1.38,1.83,1.83,0,0,0-.1.7,1.29,1.29,0,0,0-.88.38,1.33,1.33,0,0,0-.39.9A1.6,1.6,0,0,0,34.56,72a1.65,1.65,0,0,0,1.8,1.61s0,4.38-.14,5.9a24.17,24.17,0,0,1-.44,3.45h0l-.16.75a.61.61,0,0,0,.59.71h8.45a.61.61,0,0,0,.59-.71l-.17-.77h0s0-.1,0-.2c-.06-1,1.5-1.67,2-2.63C47.49,79.27,47.45,75.54,47,74.35Zm-3.82-5a1.62,1.62,0,0,0,0-.22.85.85,0,0,1,.94.19.88.88,0,0,1,.23.81,1.68,1.68,0,0,0-.39.16,1.64,1.64,0,0,0-.37.32l-.1-.09a1.35,1.35,0,0,0-.65-.28A1.89,1.89,0,0,0,43.2,69.36ZM35.1,72a1.07,1.07,0,0,1,.78-1,1.06,1.06,0,0,0,.63.6,1.43,1.43,0,0,1-.3-.9,1.13,1.13,0,0,1,.92-1,1.61,1.61,0,0,0,.22.48,1.5,1.5,0,0,0-.14.58,1.45,1.45,0,0,0,.26.87A1.5,1.5,0,0,0,39,72a1.32,1.32,0,0,1-1.14-.74,1.15,1.15,0,0,1,1.23-1.64,1.37,1.37,0,0,1,1,.89,1.31,1.31,0,0,0-.93-1.3,1.46,1.46,0,0,0-1.65.53,1,1,0,0,0-.09.13,2.14,2.14,0,0,1,.2-1.29,1.86,1.86,0,0,1,2.63-.71,2.2,2.2,0,0,1,.94,1.36,1.85,1.85,0,0,0-.42-1.57,1.73,1.73,0,0,1,1.73.56,1.86,1.86,0,0,1,.26,2,1.35,1.35,0,0,0-.45,0,1.09,1.09,0,0,0-.79.8,1.43,1.43,0,0,1,.87-.39,1.15,1.15,0,0,1,.78.26,1.13,1.13,0,0,1,.4.71,1.4,1.4,0,0,1-.21.92,1.09,1.09,0,0,0,.63-.93,1.34,1.34,0,0,0-.26-.88,1.52,1.52,0,0,1,1.2-.17,1.35,1.35,0,0,1,1,1.06c.09.48-.21,1.33-1.56,1.33H42.66a1.2,1.2,0,0,0,0-.42,1.38,1.38,0,0,0-.64-.85,1.22,1.22,0,0,1,.44.93,1.38,1.38,0,0,1-.6,1.13,1.05,1.05,0,0,1-1.12,0,2,2,0,0,0,.12-.34,1.8,1.8,0,0,0-.41-1.59,1.68,1.68,0,0,1-.07,1.8,1.53,1.53,0,0,1-1.84.64A1.42,1.42,0,0,1,37.59,73H36.38A1.17,1.17,0,0,1,35.1,72Zm7.31,8.28a.38.38,0,0,1,.35.4.37.37,0,0,1-.4.35.37.37,0,0,1-.35-.4A.38.38,0,0,1,42.41,80.23Zm-.52-3.57a.55.55,0,0,1,.59-.52.56.56,0,1,1-.59.52Zm.84,2.18a.49.49,0,1,1,.53-.46A.49.49,0,0,1,42.73,78.84Zm-1.24-3.51a.35.35,0,0,1,0,.18.55.55,0,0,1-1.09-.06c-1.29.26-2.32.75-3.31.27,0,0,0-1.69,0-2.2a1.9,1.9,0,0,0,1.35,1.36,2,2,0,0,0,2.11-.58,1.58,1.58,0,0,0,2.06-.65h1v2.07A5.15,5.15,0,0,0,41.49,75.33Zm-.23,3.74a.44.44,0,0,1,.4.47.42.42,0,0,1-.46.4.44.44,0,0,1-.41-.47A.44.44,0,0,1,41.26,79.07Zm-.49-.62a.62.62,0,1,1,.09-1.23.62.62,0,0,1-.09,1.23ZM41.33,81a.42.42,0,0,1,.39.45.43.43,0,0,1-.45.39.42.42,0,0,1,.06-.84Zm-4.27,1.23h0a20.35,20.35,0,0,0,.43-3.09c.1-1.55.14-2.59.14-2.59h.55s0,1-.14,2.59-.15,3.12-.15,3.12l-1,.66ZM37,83.55c.94-.18,1.79-1.33,3.64-1.33h0a3.75,3.75,0,0,1,1.18.18s0,0,0,0a.34.34,0,0,1,.36-.31.34.34,0,0,1,.31.36.36.36,0,0,1-.11.22,7.33,7.33,0,0,0,1.92.92Zm6.63-1.41A13.69,13.69,0,0,1,43.76,79a20.38,20.38,0,0,0,.37,3.08,4.73,4.73,0,0,0,.23.7ZM46.55,79a1.1,1.1,0,0,1-1.1,1.16c-.7,0-.81-.8-.81-.8v0c0-.65-.06-1.63-.08-2.61.16,0,.51-.14.51-.77S45,74.86,46,74.86,46.55,78.39,46.55,79Z"/>
        <path d="M46.55,73.88c-.1-.28-.43-.3-.69-.3h-1c-.29,0-.84,0-.86-.23v-.13A2.59,2.59,0,0,0,45.16,73a1.76,1.76,0,0,0,.77-.78,1.8,1.8,0,0,0-.37-2.1,1.76,1.76,0,0,0-1-.47h-.11a1.4,1.4,0,0,0-.4-1.12,1.38,1.38,0,0,0-1.38-.35,2,2,0,0,0-.29-.61,2.07,2.07,0,0,0-1.19-.81,2.12,2.12,0,0,0-1.34.11,2.14,2.14,0,0,0-3.17,1.11,1.89,1.89,0,0,0-.1.7,1.34,1.34,0,0,0-.88.39,1.3,1.3,0,0,0-.39.89,1.62,1.62,0,0,0-1.22,1.56,1.65,1.65,0,0,0,1.8,1.61s0,4.38-.14,5.9a24.17,24.17,0,0,1-.44,3.45h0l-.16.74a.61.61,0,0,0,.59.72h8.45a.61.61,0,0,0,.59-.72l-.17-.76h0s0-.1,0-.2c-.06-1,1.5-1.67,2-2.63C47,78.79,47,75.07,46.55,73.88Zm-3.81-5a1.77,1.77,0,0,0,0-.23.87.87,0,0,1,.94.2.85.85,0,0,1,.23.81,1.8,1.8,0,0,0-.38.16,1.5,1.5,0,0,0-.38.32l-.1-.09a1.35,1.35,0,0,0-.65-.28A2,2,0,0,0,42.74,68.89Zm-8.11,2.59a1.05,1.05,0,0,1,.78-1,1.09,1.09,0,0,0,.63.6,1.44,1.44,0,0,1-.3-.91,1.16,1.16,0,0,1,.34-.74,1.12,1.12,0,0,1,.58-.3,1.61,1.61,0,0,0,.22.48A1.45,1.45,0,0,0,37,71a1.52,1.52,0,0,0,1.5.53,1.36,1.36,0,0,1-1.14-.74,1.16,1.16,0,0,1,1.24-1.65,1.38,1.38,0,0,1,1,.9,1.31,1.31,0,0,0-.93-1.3,1.46,1.46,0,0,0-.9,0,1.48,1.48,0,0,0-.75.53l-.09.14a2.18,2.18,0,0,1,.2-1.3,1.87,1.87,0,0,1,2.63-.7,2.16,2.16,0,0,1,.94,1.36,1.85,1.85,0,0,0-.42-1.57,1.76,1.76,0,0,1,1.74.56,1.86,1.86,0,0,1,.25,2,1.38,1.38,0,0,0-.45,0,1.11,1.11,0,0,0-.79.79,1.41,1.41,0,0,1,.87-.38,1.12,1.12,0,0,1,1.18,1,1.4,1.4,0,0,1-.21.92,1.09,1.09,0,0,0,.63-.93,1.33,1.33,0,0,0-.26-.89,1.56,1.56,0,0,1,1.2-.17,1.35,1.35,0,0,1,1,1.06c.09.49-.21,1.34-1.56,1.34H42.19a1.2,1.2,0,0,0,0-.42,1.38,1.38,0,0,0-.64-.85,1.26,1.26,0,0,1,.45.93,1.43,1.43,0,0,1-.61,1.13,1.07,1.07,0,0,1-1.12,0,2,2,0,0,0,.12-.34,1.79,1.79,0,0,0-.41-1.59,1.68,1.68,0,0,1-.07,1.8,1.53,1.53,0,0,1-1.84.64,1.4,1.4,0,0,1-.9-1.32H35.91A1.18,1.18,0,0,1,34.63,71.48Zm7.31,8.28a.38.38,0,0,1,0,.75.37.37,0,0,1-.35-.4A.38.38,0,0,1,41.94,79.76Zm-.52-3.57a.56.56,0,1,1,.52.59A.56.56,0,0,1,41.42,76.19Zm.84,2.18a.49.49,0,0,1-.46-.53.5.5,0,1,1,.46.53ZM41,74.85A.4.4,0,0,1,41,75a.53.53,0,0,1-.58.5A.55.55,0,0,1,40,75c-1.29.26-2.32.75-3.31.27,0,0,0-1.69,0-2.2A1.93,1.93,0,0,0,38,74.41a2,2,0,0,0,2.11-.58,1.58,1.58,0,0,0,2.06-.65h1v2.07A5.33,5.33,0,0,0,41,74.85Zm-.23,3.75a.42.42,0,0,1,.4.46.43.43,0,0,1-.46.41.45.45,0,0,1-.41-.47A.44.44,0,0,1,40.79,78.6ZM40.3,78a.62.62,0,0,1,.09-1.23.62.62,0,0,1,.57.66A.61.61,0,0,1,40.3,78Zm.56,2.53a.42.42,0,0,1,.39.45.42.42,0,0,1-.45.39.42.42,0,0,1-.38-.45A.41.41,0,0,1,40.86,80.51Zm-4.27,1.22h0A19.89,19.89,0,0,0,37,78.64c.1-1.54.14-2.58.14-2.58h.55s0,1-.13,2.58-.16,3.13-.16,3.13l-1,.65Zm-.06,1.35c.94-.18,1.79-1.33,3.65-1.33h0a3.73,3.73,0,0,1,1.17.18s0,0,0,0a.35.35,0,0,1,.36-.31.34.34,0,0,1,.31.36.38.38,0,0,1-.1.21,6.88,6.88,0,0,0,1.91.93Zm6.63-1.41a13.69,13.69,0,0,1,.13-3.13,21.42,21.42,0,0,0,.37,3.07,4.61,4.61,0,0,0,.23.71Zm2.92-3.14A1.1,1.1,0,0,1,45,79.69c-.69,0-.81-.8-.81-.8v0c0-.65-.06-1.63-.08-2.61.16,0,.51-.14.52-.77s-.1-1.16.88-1.16S46.08,77.92,46.08,78.53Z"/>
        <path class="cls-2" d="M78,74.94c-.1-.28-.42-.31-.69-.31h-1c-.3,0-.85,0-.86-.22a.72.72,0,0,1,0-.13A2.56,2.56,0,0,0,76.63,74a1.78,1.78,0,0,0,.78-.78,1.87,1.87,0,0,0,.16-1.12A1.8,1.8,0,0,0,76,70.67h-.11a1.38,1.38,0,0,0-1.78-1.46,1.91,1.91,0,0,0-.29-.61,2.14,2.14,0,0,0-1.19-.82,2.2,2.2,0,0,0-1.34.12A2.13,2.13,0,0,0,68.16,69a1.89,1.89,0,0,0-.1.7,1.38,1.38,0,0,0-.88.38,1.36,1.36,0,0,0-.4.9,1.62,1.62,0,0,0-1.21,1.56,1.65,1.65,0,0,0,1.79,1.61s0,4.38-.14,5.9a25.16,25.16,0,0,1-.43,3.45h0l-.16.74a.61.61,0,0,0,.58.71h8.45a.61.61,0,0,0,.59-.71l-.17-.76h0a1.72,1.72,0,0,0,0-.21c-.06-1,1.5-1.66,2-2.63C78.49,79.85,78.45,76.13,78,74.94Zm-3.81-5a1.77,1.77,0,0,0,0-.23.87.87,0,0,1,.93.19.86.86,0,0,1,.23.81,1.8,1.8,0,0,0-.38.16,1.51,1.51,0,0,0-.38.33l-.1-.09a1.28,1.28,0,0,0-.65-.29A1.93,1.93,0,0,0,74.21,70ZM66.1,72.54a1.07,1.07,0,0,1,.78-1,1.06,1.06,0,0,0,.63.6,1.34,1.34,0,0,1-.29-.9,1.11,1.11,0,0,1,.33-.74,1.17,1.17,0,0,1,.58-.31,2,2,0,0,0,.22.49,1.44,1.44,0,0,0-.13.58,1.39,1.39,0,0,0,.25.86,1.53,1.53,0,0,0,1.5.54,1.36,1.36,0,0,1-1.14-.75,1.15,1.15,0,0,1,.12-1.2,1.18,1.18,0,0,1,1.12-.44,1.35,1.35,0,0,1,1,.89,1.3,1.3,0,0,0-.93-1.29,1.39,1.39,0,0,0-.9,0,1.48,1.48,0,0,0-.75.53l-.09.14a2.11,2.11,0,0,1,.21-1.3,1.86,1.86,0,0,1,1.16-.93,1.92,1.92,0,0,1,1.47.23,2.19,2.19,0,0,1,.93,1.36,1.84,1.84,0,0,0-.41-1.57,1.73,1.73,0,0,1,1.73.55,1.88,1.88,0,0,1,.25,2,1.2,1.2,0,0,0-1.23.84,1.33,1.33,0,0,1,.86-.38,1.11,1.11,0,0,1,.78.25,1.13,1.13,0,0,1,.4.72,1.34,1.34,0,0,1-.21.92,1.08,1.08,0,0,0,.63-.94,1.3,1.3,0,0,0-.26-.88,1.56,1.56,0,0,1,1.2-.17,1.38,1.38,0,0,1,1,1.06c.08.49-.21,1.34-1.57,1.34H73.67a1.93,1.93,0,0,0,0-.42,1.43,1.43,0,0,0-.65-.85,1.21,1.21,0,0,1,.45.93,1.43,1.43,0,0,1-.61,1.13,1.06,1.06,0,0,1-1.11,0,1.93,1.93,0,0,0,.11-.34,1.78,1.78,0,0,0-.41-1.59,1.68,1.68,0,0,1-.06,1.8,1.56,1.56,0,0,1-1.85.64,1.41,1.41,0,0,1-.9-1.32H67.38A1.18,1.18,0,0,1,66.1,72.54Zm7.32,8.28a.38.38,0,0,1,.35.4.38.38,0,0,1-.4.35.38.38,0,0,1-.35-.4A.37.37,0,0,1,73.42,80.82Zm-.53-3.58a.56.56,0,0,1,.6-.51.55.55,0,0,1,.51.59.56.56,0,1,1-1.11-.08Zm.84,2.19a.51.51,0,0,1-.46-.53.5.5,0,1,1,.46.53ZM72.5,75.91a1.1,1.1,0,0,1,0,.18.56.56,0,0,1-.59.51.54.54,0,0,1-.5-.56c-1.3.25-2.33.75-3.32.27,0,0,0-1.69,0-2.21a1.94,1.94,0,0,0,1.35,1.37,2,2,0,0,0,2.12-.58,1.58,1.58,0,0,0,2-.65h1v2.07A5.22,5.22,0,0,0,72.5,75.91Zm-.24,3.75a.44.44,0,0,1,.41.46.45.45,0,0,1-.47.41.44.44,0,0,1-.4-.47A.42.42,0,0,1,72.26,79.66ZM71.77,79a.62.62,0,0,1-.57-.66.62.62,0,0,1,1.23.09A.62.62,0,0,1,71.77,79Zm.57,2.53a.42.42,0,0,1-.06.83.41.41,0,0,1-.39-.44A.42.42,0,0,1,72.34,81.57Zm-4.27,1.22h0a20.66,20.66,0,0,0,.44-3.09c.1-1.54.13-2.58.13-2.58h.56s0,1-.14,2.58-.16,3.13-.16,3.13l-1,.65ZM68,84.14c.93-.19,1.78-1.33,3.64-1.33h0a4,4,0,0,1,1.17.17s0,0,0,0a.32.32,0,0,1,.35-.31.32.32,0,0,1,.31.36.28.28,0,0,1-.1.21,7.32,7.32,0,0,0,1.91.93Zm6.63-1.42a13.22,13.22,0,0,1,.12-3.12,21.86,21.86,0,0,0,.37,3.07,6.08,6.08,0,0,0,.24.71Zm2.92-3.13a1.11,1.11,0,0,1-1.11,1.16c-.69,0-.8-.8-.8-.8v0c0-.65-.07-1.63-.09-2.62.16,0,.52-.13.52-.77s-.1-1.15.88-1.15S77.56,79,77.56,79.59Z"/>
        <path d="M77.55,74.47c-.1-.28-.42-.31-.69-.31h-1c-.3,0-.85,0-.86-.22v-.13a2.62,2.62,0,0,0,1.12-.26,1.73,1.73,0,0,0,.77-.79,1.78,1.78,0,0,0-.38-2.1,1.72,1.72,0,0,0-1-.46h-.12a1.38,1.38,0,0,0-.4-1.12,1.39,1.39,0,0,0-1.38-.35,1.76,1.76,0,0,0-.29-.6,2.06,2.06,0,0,0-1.19-.82,2.13,2.13,0,0,0-1.34.11,2.13,2.13,0,0,0-3.16,1.12,1.89,1.89,0,0,0-.1.7,1.33,1.33,0,0,0-.88.38,1.3,1.3,0,0,0-.39.9,1.61,1.61,0,0,0-1.22,1.56,1.65,1.65,0,0,0,1.79,1.61s0,4.38-.13,5.89A26,26,0,0,1,66.32,83h0l-.16.74a.61.61,0,0,0,.59.71h8.44a.61.61,0,0,0,.59-.71L75.62,83h0a1,1,0,0,1,0-.2c-.07-1,1.49-1.66,2-2.63C78,79.38,78,75.66,77.55,74.47Zm-3.81-5a1.62,1.62,0,0,0,0-.22.87.87,0,0,1,.93.19.89.89,0,0,1,.24.81,1.68,1.68,0,0,0-.39.16,1.7,1.7,0,0,0-.38.33.28.28,0,0,0-.1-.09,1.21,1.21,0,0,0-.65-.29A1.82,1.82,0,0,0,73.74,69.47Zm-8.11,2.6a1.07,1.07,0,0,1,.78-1,1.06,1.06,0,0,0,.63.6,1.34,1.34,0,0,1-.29-.9,1.15,1.15,0,0,1,.33-.75,1.24,1.24,0,0,1,.58-.3,1.69,1.69,0,0,0,.23.49,1.3,1.3,0,0,0-.14.58,1.5,1.5,0,0,0,.25.86,1.54,1.54,0,0,0,1.5.54,1.36,1.36,0,0,1-1.14-.75,1.16,1.16,0,0,1,1.24-1.64,1.35,1.35,0,0,1,1,.89,1.31,1.31,0,0,0-.92-1.3,1.49,1.49,0,0,0-.91,0,1.53,1.53,0,0,0-.75.53L68,70a2.15,2.15,0,0,1,.21-1.29,1.88,1.88,0,0,1,1.16-.93A1.84,1.84,0,0,1,70.8,68a2.13,2.13,0,0,1,.93,1.36,1.8,1.8,0,0,0-.41-1.57,1.71,1.71,0,0,1,1.73.55,1.86,1.86,0,0,1,.25,2,1.29,1.29,0,0,0-.44,0,1.1,1.1,0,0,0-.79.8,1.4,1.4,0,0,1,.86-.39,1.17,1.17,0,0,1,.78.26,1.13,1.13,0,0,1,.4.72,1.34,1.34,0,0,1-.2.92,1.11,1.11,0,0,0,.62-.94,1.29,1.29,0,0,0-.25-.88,1.5,1.5,0,0,1,1.19-.17,1.36,1.36,0,0,1,1,1.06c.09.49-.21,1.34-1.56,1.34H73.2a1.87,1.87,0,0,0,0-.42,1.38,1.38,0,0,0-.65-.85,1.18,1.18,0,0,1,.45.93,1.37,1.37,0,0,1-.61,1.12,1,1,0,0,1-1.11,0,1.28,1.28,0,0,0,.11-.33A1.78,1.78,0,0,0,70.94,72a1.66,1.66,0,0,1-.06,1.8,1.53,1.53,0,0,1-1.84.63,1.39,1.39,0,0,1-.91-1.31H66.91A1.18,1.18,0,0,1,65.63,72.07ZM73,80.34a.39.39,0,0,1,.35.41.39.39,0,0,1-.4.35.38.38,0,0,1,0-.76Zm-.53-3.57a.56.56,0,1,1,.52.6A.57.57,0,0,1,72.42,76.77ZM73.26,79a.5.5,0,1,1,.53-.46A.49.49,0,0,1,73.26,79ZM72,75.44a1.1,1.1,0,0,1,0,.18.55.55,0,0,1-.59.51.54.54,0,0,1-.5-.56c-1.29.25-2.33.74-3.32.26,0,0,0-1.68,0-2.2A1.91,1.91,0,0,0,69,75a2,2,0,0,0,2.11-.58,1.56,1.56,0,0,0,2-.64h1v2.06A5.36,5.36,0,0,0,72,75.44Zm-.24,3.74a.44.44,0,0,1,.41.47.45.45,0,0,1-.47.41.44.44,0,0,1,.06-.88Zm-.49-.61a.62.62,0,0,1-.57-.66.63.63,0,0,1,.66-.58A.62.62,0,0,1,72,78,.62.62,0,0,1,71.3,78.57Zm.57,2.53a.42.42,0,0,1,.39.44.42.42,0,0,1-.84-.06A.42.42,0,0,1,71.87,81.1ZM67.6,82.32h0A20.66,20.66,0,0,0,68,79.23c.1-1.55.14-2.58.14-2.58h.55s0,1-.14,2.58-.16,3.13-.16,3.13l-1,.65Zm-.06,1.34c.93-.18,1.78-1.32,3.64-1.33h0a3.64,3.64,0,0,1,1.17.18v0a.33.33,0,0,1,.66,0,.3.3,0,0,1-.1.22,7,7,0,0,0,1.91.92Zm6.63-1.41a13.61,13.61,0,0,1,.13-3.12,20.87,20.87,0,0,0,.36,3.07,5.58,5.58,0,0,0,.24.7Zm2.92-3.14A1.11,1.11,0,0,1,76,80.28c-.69,0-.8-.81-.8-.81v0c0-.65-.07-1.64-.09-2.62.16,0,.52-.14.52-.77S75.52,75,76.49,75,77.09,78.5,77.09,79.11Z"/>
        <path d="M115.6,68.55V82.79h-5V68.55H105.8V66.19h14.56v2.36Z"/>
        <path d="M173.74,82.79h-5V66.19h5.33c3.88,0,7.42.77,7.42,3.76a4.22,4.22,0,0,1-3,3.66v.06c2,.55,3.9,1.73,3.9,4C182.38,81,178.82,82.79,173.74,82.79Zm-.07-14.26v4.08a6.16,6.16,0,0,0,.75,0,2.08,2.08,0,0,0,2.11-2.11C176.53,69.11,175.51,68.53,173.67,68.53Zm0,6.39v5.56c2.06,0,3.6-.84,3.6-2.75S175.6,74.92,173.67,74.92Z"/>
        <path class="cls-2" d="M9.39,83.08h-5V66.48H9.75c3.88,0,7.41.77,7.41,3.76a4.21,4.21,0,0,1-3,3.65V74c2,.54,3.9,1.72,3.9,4C18,81.31,14.47,83.08,9.39,83.08ZM9.32,68.81v4.08c.13,0,.63,0,.75,0a2.07,2.07,0,0,0,2.1-2.11C12.17,69.4,11.15,68.81,9.32,68.81Zm0,6.4v5.55c2.06,0,3.6-.84,3.6-2.74S11.25,75.21,9.32,75.21Z"/>
        <path d="M8.91,82.57h-5V66H9.27c3.88,0,7.42.78,7.42,3.77a4.21,4.21,0,0,1-3,3.65v.07c2,.54,3.9,1.72,3.9,3.94C17.55,80.8,14,82.57,8.91,82.57ZM8.84,68.3v4.08c.14,0,.64,0,.75,0a2.08,2.08,0,0,0,2.11-2.11C11.7,68.89,10.68,68.3,8.84,68.3Zm0,6.4v5.55c2.06,0,3.61-.84,3.61-2.74S10.77,74.7,8.84,74.7Z"/>
        <path d="M278.51,82.79l-2.66-8.25c1.68-.32,2.75-1.05,2.75-3.16,0-1.74-1.27-2.92-3.24-2.92V82.79h-4.95V66.19h5.13c4.4,0,8.09.91,8.09,4.72A4.8,4.8,0,0,1,281,75.35l3,7.44Z"/>
      </g>
    </g>
  </g>
</svg>
